<svg width="200" height="160" viewBox="0 0 200 160" fill="none" xmlns="http://www.w3.org/2000/svg">
<g clip-path="url(#clip0_1420_850)">
<path d="M-9.76585e-06 134.21C-9.76585e-06 133.67 0.0999902 133.25 0.30999 132.94C0.51999 132.63 0.87999 132.4 1.40999 132.24C1.93999 132.09 2.63999 131.99 3.51999 131.94C4.39999 131.9 5.51999 131.88 6.88999 131.88C8.85999 131.88 10.62 132.13 12.18 132.64C13.74 133.15 15.07 133.87 16.15 134.81C17.24 135.75 18.07 136.9 18.65 138.26C19.23 139.62 19.52 141.13 19.52 142.81C19.52 144.49 19.24 146.03 18.68 147.39C18.12 148.74 17.3 149.9 16.21 150.85C15.12 151.8 13.78 152.53 12.17 153.04C10.57 153.55 8.71999 153.8 6.62999 153.8C4.41999 153.8 2.77999 153.75 1.72999 153.66C0.66999 153.57 0.0999902 153.51 -0.0100098 153.49V134.22L-9.76585e-06 134.21ZM3.68999 150.26C3.80999 150.3 4.13999 150.35 4.67999 150.4C5.21999 150.45 5.96999 150.48 6.94999 150.48C9.75999 150.48 11.92 149.81 13.41 148.48C14.9 147.15 15.64 145.26 15.64 142.82C15.64 141.7 15.47 140.67 15.13 139.73C14.79 138.79 14.27 137.98 13.56 137.31C12.86 136.64 11.96 136.11 10.86 135.73C9.75999 135.35 8.45999 135.16 6.94999 135.16C5.95999 135.16 5.18999 135.19 4.63999 135.24C4.08999 135.29 3.77999 135.33 3.68999 135.35V150.28V150.26ZM23.31 139.55C23.31 138.97 23.47 138.55 23.81 138.29C24.15 138.03 24.61 137.9 25.21 137.9C25.58 137.9 25.92 137.95 26.23 138.04C26.54 138.13 26.75 138.2 26.85 138.24V146.4C26.85 147.81 27.18 148.88 27.84 149.61C28.5 150.35 29.52 150.71 30.88 150.71C32.24 150.71 33.26 150.34 33.92 149.61C34.58 148.88 34.91 147.81 34.91 146.4V139.54C34.91 138.96 35.08 138.54 35.41 138.28C35.74 138.02 36.2 137.89 36.77 137.89C37.16 137.89 37.52 137.94 37.83 138.03C38.14 138.12 38.35 138.19 38.45 138.23V147.17C38.45 148.22 38.27 149.17 37.91 150.01C37.55 150.85 37.03 151.56 36.36 152.14C35.69 152.72 34.88 153.16 33.95 153.46C33.02 153.76 31.99 153.91 30.88 153.91C29.77 153.91 28.74 153.76 27.81 153.46C26.88 153.16 26.08 152.72 25.42 152.14C24.76 151.56 24.24 150.85 23.87 150.01C23.5 149.17 23.31 148.22 23.31 147.17V139.53V139.55ZM42.71 143.46C42.71 142.47 42.89 141.6 43.24 140.85C43.59 140.1 44.07 139.48 44.68 138.99C45.29 138.49 46.01 138.12 46.84 137.86C47.67 137.6 48.57 137.47 49.54 137.47C50.82 137.47 51.97 137.71 52.99 138.18C54 138.66 54.81 139.36 55.41 140.29C56.01 139.36 56.81 138.66 57.8 138.18C58.79 137.7 59.92 137.47 61.18 137.47C62.13 137.47 63.02 137.59 63.85 137.84C64.68 138.09 65.39 138.46 65.99 138.96C66.59 139.46 67.06 140.08 67.42 140.82C67.77 141.57 67.95 142.43 67.95 143.43V153.49H64.41V144.64C64.41 143.21 64.09 142.19 63.45 141.58C62.81 140.97 61.94 140.66 60.84 140.66C59.74 140.66 58.9 141 58.19 141.68C57.48 142.36 57.12 143.47 57.12 145V153.47H53.58V145C53.58 143.47 53.22 142.36 52.51 141.68C51.8 141 50.91 140.66 49.86 140.66C48.81 140.66 47.92 140.97 47.25 141.59C46.59 142.21 46.26 143.23 46.26 144.66V153.47H42.72V143.44L42.71 143.46ZM72.16 143.46C72.16 142.47 72.34 141.6 72.69 140.85C73.04 140.1 73.52 139.48 74.13 138.99C74.74 138.49 75.46 138.12 76.29 137.86C77.12 137.6 78.02 137.47 78.99 137.47C80.27 137.47 81.42 137.71 82.44 138.18C83.45 138.66 84.26 139.36 84.86 140.29C85.46 139.36 86.26 138.66 87.25 138.18C88.24 137.7 89.37 137.47 90.63 137.47C91.58 137.47 92.47 137.59 93.3 137.84C94.13 138.09 94.84 138.46 95.44 138.96C96.04 139.46 96.51 140.08 96.87 140.82C97.22 141.57 97.4 142.43 97.4 143.43V153.49H93.86V144.64C93.86 143.21 93.54 142.19 92.9 141.58C92.26 140.97 91.39 140.66 90.29 140.66C89.19 140.66 88.35 141 87.64 141.68C86.93 142.36 86.57 143.47 86.57 145V153.47H83.03V145C83.03 143.47 82.67 142.36 81.96 141.68C81.25 141 80.36 140.66 79.31 140.66C78.26 140.66 77.37 140.97 76.7 141.59C76.04 142.21 75.71 143.23 75.71 144.66V153.47H72.17V143.44L72.16 143.46ZM101.61 139.55C101.61 138.99 101.77 138.58 102.11 138.31C102.45 138.04 102.9 137.91 103.48 137.91C103.85 137.91 104.2 137.96 104.52 138.05C104.84 138.14 105.05 138.21 105.16 138.25V146.54C105.16 147.76 105.49 148.73 106.14 149.46C106.79 150.19 107.8 150.55 109.17 150.55C110.43 150.55 111.43 150.18 112.15 149.45C112.87 148.72 113.24 147.63 113.24 146.21V139.57C113.24 139.01 113.41 138.6 113.74 138.33C114.07 138.06 114.53 137.93 115.1 137.93C115.47 137.93 115.82 137.98 116.14 138.07C116.46 138.16 116.67 138.23 116.78 138.27V151.87C116.78 153.34 116.58 154.59 116.19 155.61C115.8 156.63 115.24 157.48 114.51 158.14C113.78 158.8 112.92 159.28 111.9 159.58C110.89 159.88 109.76 160.03 108.52 160.03C107.67 160.03 106.9 159.98 106.19 159.89C105.49 159.8 104.86 159.69 104.31 159.56C103.76 159.44 103.31 159.32 102.96 159.2C102.61 159.09 102.36 159 102.21 158.94C102.38 158.51 102.53 158.07 102.68 157.62C102.82 157.18 102.97 156.74 103.11 156.3C103.25 156.36 103.48 156.44 103.79 156.55C104.1 156.65 104.47 156.75 104.91 156.84C105.34 156.93 105.84 157.01 106.38 157.07C106.93 157.13 107.51 157.16 108.13 157.16C108.94 157.16 109.66 157.07 110.3 156.9C110.94 156.73 111.49 156.42 111.93 155.98C112.37 155.54 112.72 154.97 112.95 154.26C113.19 153.55 113.31 152.65 113.31 151.57C112.9 152.17 112.25 152.65 111.37 153.01C110.49 153.37 109.52 153.55 108.47 153.55C107.48 153.55 106.56 153.41 105.71 153.13C104.86 152.85 104.14 152.45 103.54 151.92C102.94 151.39 102.47 150.73 102.13 149.95C101.79 149.17 101.62 148.26 101.62 147.25V139.55H101.61ZM149 152.06C148.77 152.23 148.46 152.42 148.05 152.65C147.65 152.88 147.14 153.09 146.53 153.3C145.92 153.51 145.2 153.68 144.37 153.83C143.54 153.97 142.6 154.05 141.55 154.05C140.02 154.05 138.57 153.81 137.21 153.32C135.84 152.83 134.64 152.12 133.59 151.19C132.54 150.26 131.72 149.1 131.11 147.71C130.5 146.32 130.19 144.73 130.19 142.93C130.19 141.13 130.49 139.56 131.07 138.15C131.66 136.74 132.47 135.56 133.49 134.6C134.51 133.64 135.71 132.9 137.07 132.4C138.43 131.89 139.89 131.64 141.45 131.64C143.01 131.64 144.16 131.76 145.11 132.01C146.06 132.26 146.81 132.56 147.36 132.93C147.91 133.29 148.29 133.66 148.51 134.05C148.73 134.44 148.84 134.75 148.84 135C148.84 135.27 148.78 135.53 148.67 135.78C148.56 136.03 148.42 136.25 148.27 136.45C148.12 136.65 147.95 136.82 147.79 136.96C147.62 137.11 147.48 137.21 147.36 137.27C147.15 137.04 146.87 136.8 146.51 136.53C146.15 136.26 145.72 136.01 145.22 135.79C144.72 135.56 144.17 135.37 143.54 135.22C142.92 135.06 142.25 134.99 141.52 134.99C140.46 134.99 139.48 135.17 138.57 135.53C137.66 135.89 136.87 136.42 136.21 137.11C135.55 137.8 135.02 138.64 134.64 139.62C134.26 140.6 134.07 141.71 134.07 142.96C134.07 144.21 134.27 145.33 134.68 146.3C135.08 147.26 135.64 148.07 136.34 148.72C137.04 149.37 137.87 149.86 138.82 150.19C139.77 150.52 140.8 150.69 141.89 150.69C143.19 150.69 144.32 150.53 145.26 150.19C146.2 149.86 146.89 149.55 147.32 149.26L148.97 152.08H149V152.06ZM167.78 153.43C167.57 153.47 167.25 153.52 166.8 153.57C166.35 153.62 165.83 153.67 165.23 153.72C164.63 153.77 163.96 153.82 163.21 153.86C162.47 153.9 161.69 153.92 160.88 153.92C159.27 153.92 157.95 153.78 156.92 153.5C155.9 153.22 155.09 152.85 154.5 152.38C153.91 151.92 153.51 151.38 153.29 150.77C153.07 150.16 152.96 149.53 152.96 148.89C152.96 148.04 153.09 147.3 153.35 146.66C153.61 146.02 154.03 145.48 154.62 145.05C155.21 144.62 155.98 144.29 156.93 144.07C157.88 143.85 159.04 143.74 160.41 143.74C161.2 143.74 161.94 143.77 162.64 143.82C163.34 143.87 163.87 143.92 164.22 143.96C164.22 143.24 164.1 142.64 163.86 142.16C163.62 141.68 163.3 141.31 162.88 141.04C162.47 140.77 161.97 140.59 161.39 140.48C160.81 140.38 160.17 140.33 159.47 140.33C158.29 140.33 157.34 140.46 156.63 140.73C155.92 141 155.44 141.23 155.22 141.41C155.1 141.31 154.92 141.11 154.71 140.82C154.49 140.53 154.38 140.18 154.38 139.77C154.38 139.48 154.46 139.2 154.61 138.92C154.77 138.64 155.04 138.39 155.43 138.18C155.82 137.97 156.35 137.79 157.01 137.67C157.67 137.55 158.51 137.48 159.52 137.48C160.74 137.48 161.85 137.6 162.86 137.84C163.86 138.08 164.73 138.46 165.45 138.97C166.17 139.48 166.74 140.17 167.14 141.02C167.54 141.87 167.75 142.89 167.75 144.09V153.43H167.78ZM164.27 146.54C164.06 146.5 163.67 146.44 163.11 146.35C162.54 146.27 161.69 146.23 160.55 146.23C159.14 146.23 158.12 146.44 157.48 146.87C156.84 147.29 156.52 147.96 156.52 148.87C156.52 149.24 156.59 149.58 156.72 149.89C156.85 150.2 157.09 150.46 157.42 150.68C157.75 150.9 158.2 151.06 158.77 151.18C159.34 151.29 160.05 151.35 160.9 151.35C161.85 151.35 162.61 151.31 163.17 151.24C163.73 151.17 164.1 151.11 164.29 151.07V146.54H164.27ZM172.12 136.95C172.12 135.83 172.28 134.87 172.59 134.06C172.9 133.25 173.34 132.6 173.91 132.09C174.48 131.58 175.15 131.21 175.93 130.97C176.71 130.73 177.56 130.61 178.49 130.61C180.19 130.61 181.39 130.81 182.09 131.22C182.79 131.62 183.15 132.14 183.15 132.76C183.15 133.11 183.05 133.42 182.85 133.69C182.65 133.96 182.44 134.17 182.21 134.31C181.88 134.04 181.43 133.82 180.86 133.66C180.29 133.49 179.68 133.41 179.04 133.41C177.82 133.41 176.95 133.72 176.43 134.34C175.91 134.96 175.65 135.84 175.65 136.98V137.91H180.31C180.99 137.91 181.47 138.05 181.75 138.33C182.03 138.61 182.17 139.02 182.17 139.56C182.17 139.91 182.12 140.24 182.02 140.54C181.92 140.84 181.83 141.05 181.77 141.18H175.66V153.5H172.12V136.96V136.95ZM199.4 152.34C199.23 152.44 198.98 152.59 198.62 152.77C198.27 152.96 197.83 153.13 197.3 153.3C196.77 153.47 196.16 153.61 195.47 153.73C194.78 153.85 194.02 153.92 193.19 153.92C192.03 153.92 190.95 153.74 189.95 153.39C188.95 153.04 188.07 152.52 187.31 151.82C186.55 151.13 185.96 150.28 185.53 149.27C185.1 148.27 184.88 147.11 184.88 145.81C184.88 144.51 185.09 143.44 185.52 142.41C185.94 141.39 186.53 140.51 187.29 139.77C188.05 139.04 188.94 138.47 189.96 138.06C190.98 137.66 192.11 137.45 193.33 137.45C194.41 137.45 195.36 137.59 196.19 137.87C197.02 138.15 197.72 138.52 198.28 138.99C198.84 139.46 199.28 140 199.57 140.62C199.86 141.24 200 141.9 200 142.61C200 143.32 199.87 143.99 199.6 144.58C199.33 145.17 198.86 145.68 198.17 146.1C197.48 146.52 196.57 146.86 195.41 147.09C194.25 147.33 192.78 147.45 191 147.45C190.59 147.45 190.2 147.45 189.84 147.43C189.48 147.42 189.09 147.4 188.68 147.38C188.85 148.43 189.36 149.29 190.22 149.94C191.08 150.59 192.3 150.92 193.9 150.92C194.44 150.92 194.93 150.88 195.39 150.8C195.84 150.72 196.25 150.61 196.62 150.49C196.98 150.37 197.29 150.24 197.55 150.12C197.81 150 198 149.9 198.12 149.84L199.42 152.32L199.4 152.34ZM188.51 144.98C188.99 145 189.44 145.01 189.88 145.01H191.18C192.32 145.01 193.24 144.94 193.94 144.79C194.64 144.65 195.19 144.46 195.58 144.23C195.97 144 196.23 143.74 196.36 143.45C196.48 143.16 196.55 142.86 196.55 142.55C196.55 141.76 196.23 141.17 195.6 140.78C194.97 140.39 194.19 140.19 193.26 140.19C192.49 140.19 191.82 140.32 191.24 140.59C190.66 140.86 190.17 141.22 189.78 141.66C189.39 142.11 189.08 142.62 188.86 143.2C188.64 143.78 188.52 144.37 188.5 144.97L188.51 144.98ZM153.5 32.9C153.46 32.78 153.42 32.66 153.36 32.55C153.3 32.44 153.23 32.34 153.16 32.24C148.99 24.28 143.09 17.35 135.94 11.99C135.87 11.92 135.81 11.86 135.73 11.8C135.63 11.73 135.53 11.67 135.42 11.61C126.72 5.22 116.23 1.13 104.85 0.21C104.79 0.2 104.73 0.18 104.67 0.18C104.6 0.18 104.53 0.18 104.46 0.18C102.99 0.07 101.51 0 100.01 0C95.43 0 90.97 0.53 86.67 1.51C86.63 1.51 86.6 1.52 86.56 1.53C86.5 1.53 86.44 1.53 86.38 1.55C86.36 1.55 86.34 1.57 86.31 1.57C86.27 1.58 86.23 1.6 86.19 1.61C86.18 1.61 86.17 1.61 86.15 1.62C75.09 4.24 65.2 9.92 57.45 17.73C57.37 17.79 57.28 17.85 57.21 17.93C57.11 18.03 57.03 18.14 56.96 18.25C52.95 22.38 49.53 27.09 46.83 32.24C46.76 32.33 46.69 32.43 46.64 32.54C46.58 32.65 46.54 32.76 46.51 32.88C42.36 41.03 40.01 50.24 40.01 59.99C40.01 65.6 40.8 71.02 42.25 76.17V76.2C47.19 93.77 59.93 108.1 76.49 115.19L77.05 115.64C77.09 115.59 77.13 115.53 77.18 115.47C84.22 118.38 91.93 119.99 100.01 119.99C133.09 119.99 160.01 93.07 160.01 59.99C160.01 50.24 157.66 41.04 153.51 32.89L153.5 32.9ZM149.37 86.45H123.19C120.61 86.45 118.51 84.35 118.51 81.77V80.88C118.51 78.3 120.61 76.2 123.19 76.2H144.65H153.62C152.54 79.78 151.11 83.21 149.37 86.44V86.45ZM124.04 104.32C123.04 105.73 122.45 107.45 122.45 109.3V110.19C122.45 110.56 122.48 110.92 122.52 111.28C118.01 113.27 113.19 114.69 108.16 115.42C101.14 104.44 101.09 85.71 108.06 76.11C113.9 68.07 114.41 56.49 109.58 41.71C108.32 37.87 106.87 34.34 105.59 31.51C119.77 33.3 132.04 43.54 137.21 58.01H127.94C123.17 58.01 119.29 61.89 119.29 66.66V67.55C119.29 69.41 119.89 71.14 120.89 72.55C117.24 73.56 114.54 76.91 114.54 80.88V81.77C114.54 85.28 116.64 88.29 119.64 89.65C118.43 91.14 117.7 93.03 117.7 95.1V95.99C117.7 99.96 120.39 103.3 124.04 104.32V104.32ZM133.8 104.64C131.48 106.4 129.01 107.99 126.42 109.38V109.29C126.42 106.78 128.41 104.74 130.9 104.63H133.8V104.64ZM105.11 19.57L106.59 19.84C106.71 19.86 106.83 19.87 106.95 19.87C107.89 19.87 108.73 19.2 108.9 18.24C109.1 17.16 108.38 16.13 107.3 15.93L105.43 15.59L105.68 12.43L108.21 12.89C108.33 12.91 108.45 12.92 108.56 12.92C109.5 12.92 110.34 12.25 110.51 11.29C110.71 10.21 109.99 9.18 108.91 8.98L105.99 8.45L106.32 4.34C115.68 5.4 124.34 8.76 131.73 13.86L118.74 31.38C117.1 30.58 115.41 29.88 113.68 29.3L115.59 24.23C115.98 23.2 115.46 22.06 114.43 21.67C113.4 21.28 112.26 21.8 111.87 22.83L109.83 28.23C108.07 27.83 106.28 27.55 104.47 27.4L105.1 19.56L105.11 19.57ZM148.86 32.63L131.89 41.36C130.63 39.95 129.29 38.63 127.87 37.41L142.79 23.89C145.08 26.6 147.11 29.52 148.86 32.63V32.63ZM144.65 72.23H127.94C125.36 72.23 123.26 70.13 123.26 67.55V66.66C123.26 64.08 125.36 61.98 127.94 61.98H155.97C155.85 65.49 155.4 68.91 154.66 72.23H144.65V72.23ZM141.42 58.01C139.81 53.03 137.43 48.49 134.46 44.5L150.68 36.16C153.83 42.83 155.69 50.22 155.97 58.01H141.42V58.01ZM140.11 20.95L124.69 34.93C123.9 34.36 123.08 33.82 122.25 33.31L134.91 16.23C136.74 17.69 138.47 19.27 140.11 20.94V20.95ZM78.21 86.46H50.61C48.87 83.22 47.44 79.79 46.35 76.21H78.2C80.78 76.21 82.88 78.31 82.88 80.89V81.78C82.88 84.36 80.78 86.46 78.2 86.46H78.21ZM78.67 67.56C78.67 70.14 76.57 72.24 73.99 72.24H45.32C44.58 68.92 44.13 65.5 44.01 61.99H73.99C76.57 61.99 78.67 64.09 78.67 66.67V67.56V67.56ZM44.01 58.02C44.28 50.23 46.15 42.84 49.3 36.17L67.11 45.33C64.41 49.12 62.26 53.4 60.76 58.02H44H44.01ZM69.62 42.15L51.13 32.64C53.25 28.87 55.78 25.37 58.69 22.2L74.25 37.49C72.61 38.92 71.06 40.48 69.63 42.15H69.62ZM77.37 34.99L61.48 19.37C67.9 13.28 75.76 8.69 84.49 6.18L81.38 32.46C80 33.23 78.66 34.07 77.37 35V34.99ZM87.45 14.98L90.64 28.67C88.92 29.13 87.25 29.71 85.62 30.39L87.45 14.98ZM53 90.43H75.07C77.65 90.43 79.75 92.53 79.75 95.11V96C79.75 98.58 77.65 100.68 75.07 100.68H70.84C70.67 100.68 70.49 100.66 70.32 100.66L61.54 100.68C58.31 97.62 55.44 94.18 53 90.43V90.43ZM66.23 104.66H70.58C73.03 104.79 74.99 106.82 74.99 109.31V110.11C71.89 108.56 68.96 106.74 66.22 104.66H66.23ZM77.38 104.32C81.03 103.3 83.72 99.96 83.72 95.99V95.1C83.72 93.04 82.99 91.14 81.78 89.65C84.78 88.29 86.88 85.27 86.88 81.77V80.88C86.88 77.07 84.4 73.82 80.96 72.68C82.02 71.24 82.66 69.47 82.66 67.55V66.66C82.66 61.89 78.78 58.01 74.01 58.01H64.98C69.55 45.23 79.68 35.6 91.99 32.4C96.99 42.07 103.84 60.39 97.82 68.68C89.28 80.43 87.83 100.32 94.18 115.73C88.79 115.17 83.63 113.84 78.8 111.86C78.9 111.32 78.96 110.77 78.96 110.21V109.32C78.96 107.46 78.37 105.75 77.37 104.34L77.38 104.32ZM98.59 115.98C98.57 115.92 98.55 115.85 98.53 115.79C91.89 101.38 92.97 82.13 101.05 71C110.03 58.64 97.03 33.31 94.92 29.4L89.23 5.01C92.72 4.33 96.32 3.96 100.01 3.96C100.8 3.96 101.59 3.99 102.37 4.02L100.41 28.52L100.36 29.1V29.12C100.36 29.15 100.36 29.19 100.36 29.22C100.36 29.34 100.36 29.47 100.39 29.59C100.39 29.63 100.41 29.68 100.42 29.72C100.45 29.83 100.48 29.95 100.53 30.05C100.54 30.08 100.54 30.1 100.56 30.13C102.02 33.1 104.11 37.73 105.81 42.94C110.22 56.44 109.9 66.82 104.85 73.77C97.26 84.23 96.93 103.37 103.85 115.87C102.58 115.96 101.3 116.02 100.01 116.02C99.53 116.02 99.06 116 98.59 115.98V115.98ZM138.51 100.64H131.12C130.98 100.64 130.85 100.65 130.72 100.66H126.37C123.79 100.66 121.69 98.56 121.69 95.98V95.09C121.69 92.51 123.79 90.41 126.37 90.41H147.02C144.59 94.15 141.73 97.58 138.51 100.63V100.64Z" fill="#242320"/>
</g>
<defs>
<clipPath id="clip0_1420_850">
<rect width="200" height="160" fill="white"/>
</clipPath>
</defs>
</svg>
