<svg width="32" height="32" viewBox="0 0 32 32" fill="none" xmlns="http://www.w3.org/2000/svg">
<rect width="32" height="32" rx="16" fill="#DBD6C5"/>
<path d="M24.915 11.4838C24.9083 11.4638 24.9017 11.4438 24.8917 11.4255C24.8817 11.4071 24.87 11.3904 24.8583 11.3738C24.1633 10.047 23.18 8.89191 21.9883 7.9985C21.9767 7.98683 21.9667 7.97683 21.9533 7.96683C21.9367 7.95516 21.92 7.94516 21.9017 7.93516C20.4517 6.87007 18.7033 6.18835 16.8067 6.035C16.7967 6.03334 16.7867 6.03 16.7767 6.03C16.765 6.03 16.7533 6.03 16.7417 6.03C16.4967 6.01167 16.25 6 16 6C15.2367 6 14.4933 6.08834 13.7767 6.25169C13.77 6.25169 13.765 6.25335 13.7583 6.25502C13.7483 6.25502 13.7383 6.25502 13.7283 6.25835C13.725 6.25835 13.7217 6.26169 13.7167 6.26169C13.71 6.26336 13.7033 6.26669 13.6967 6.26836C13.695 6.26836 13.6933 6.26836 13.69 6.27002C11.8467 6.70673 10.1983 7.65347 8.90667 8.95525C8.89333 8.96525 8.87833 8.97525 8.86667 8.98858C8.85 9.00525 8.83667 9.02359 8.825 9.04192C8.15667 9.73031 7.58667 10.5154 7.13667 11.3738C7.125 11.3888 7.11333 11.4055 7.105 11.4238C7.095 11.4421 7.08833 11.4605 7.08333 11.4805C6.39167 12.8389 6 14.374 6 15.9992C6 16.9342 6.13167 17.8377 6.37333 18.6961V18.7011C7.19667 21.6296 9.32 24.0182 12.08 25.1999L12.1733 25.2749C12.18 25.2666 12.1867 25.2566 12.195 25.2466C13.3683 25.7316 14.6533 26 16 26C21.5133 26 26 21.513 26 15.9992C26 14.374 25.6083 12.8406 24.9167 11.4821L24.915 11.4838ZM24.2267 20.4095H19.8633C19.4333 20.4095 19.0833 20.0595 19.0833 19.6295V19.4811C19.0833 19.0511 19.4333 18.7011 19.8633 18.7011H23.44H24.935C24.755 19.2978 24.5167 19.8695 24.2267 20.4079V20.4095ZM20.005 23.3881C19.8383 23.6231 19.74 23.9098 19.74 24.2182V24.3665C19.74 24.4282 19.745 24.4882 19.7517 24.5482C19 24.8799 18.1967 25.1166 17.3583 25.2383C16.1883 23.4081 16.18 20.2862 17.3417 18.6861C18.315 17.3459 18.4 15.4158 17.595 12.9522C17.385 12.3122 17.1433 11.7238 16.93 11.2521C19.2933 11.5505 21.3383 13.2573 22.2 15.6691H20.655C19.86 15.6691 19.2133 16.3159 19.2133 17.1109V17.2593C19.2133 17.5693 19.3133 17.8577 19.48 18.0927C18.8717 18.261 18.4217 18.8194 18.4217 19.4811V19.6295C18.4217 20.2145 18.7717 20.7162 19.2717 20.9429C19.07 21.1913 18.9483 21.5063 18.9483 21.8513V21.9997C18.9483 22.6614 19.3967 23.2181 20.005 23.3881V23.3881ZM21.6317 23.4415C21.245 23.7348 20.8333 23.9998 20.4017 24.2315V24.2165C20.4017 23.7982 20.7333 23.4581 21.1483 23.4398H21.6317V23.4415ZM16.85 9.26194L17.0967 9.30694C17.1167 9.31028 17.1367 9.31194 17.1567 9.31194C17.3133 9.31194 17.4533 9.20027 17.4817 9.04025C17.515 8.86024 17.395 8.68856 17.215 8.65522L16.9033 8.59855L16.945 8.07184L17.3667 8.14851C17.3867 8.15185 17.4067 8.15351 17.425 8.15351C17.5817 8.15351 17.7217 8.04184 17.75 7.88182C17.7833 7.70181 17.6633 7.53013 17.4833 7.49679L16.9967 7.40845L17.0517 6.72339C18.6117 6.90008 20.055 7.46012 21.2867 8.31019L19.1217 11.2304C18.8483 11.0971 18.5667 10.9804 18.2783 10.8837L18.5967 10.0387C18.6617 9.86699 18.575 9.67697 18.4033 9.61197C18.2317 9.54696 18.0417 9.63364 17.9767 9.80532L17.6367 10.7054C17.3433 10.6387 17.045 10.592 16.7433 10.567L16.8483 9.26027L16.85 9.26194ZM24.1417 11.4388L21.3133 12.8939C21.1033 12.6589 20.88 12.4389 20.6433 12.2355L23.13 9.982C23.5117 10.4337 23.85 10.9204 24.1417 11.4388V11.4388ZM23.44 18.0393H20.655C20.225 18.0393 19.875 17.6893 19.875 17.2593V17.1109C19.875 16.6809 20.225 16.3309 20.655 16.3309H25.3267C25.3067 16.9159 25.2317 17.486 25.1083 18.0393H23.44V18.0393ZM22.9017 15.6691C22.6333 14.8391 22.2367 14.0823 21.7417 13.4173L24.445 12.0272C24.97 13.1389 25.28 14.3707 25.3267 15.6691H22.9017V15.6691ZM22.6833 9.49196L20.1133 11.8222C19.9817 11.7271 19.845 11.6371 19.7067 11.5521L21.8167 8.70523C22.1217 8.94858 22.41 9.21193 22.6833 9.49029V9.49196ZM12.3667 20.4112H7.76667C7.47667 19.8712 7.23833 19.2994 7.05667 18.7027H12.365C12.795 18.7027 13.145 19.0528 13.145 19.4828V19.6311C13.145 20.0612 12.795 20.4112 12.365 20.4112H12.3667ZM12.4433 17.2609C12.4433 17.691 12.0933 18.041 11.6633 18.041H6.885C6.76167 17.4876 6.68667 16.9176 6.66667 16.3325H11.6633C12.0933 16.3325 12.4433 16.6826 12.4433 17.1126V17.2609V17.2609ZM6.66667 15.6708C6.71167 14.3724 7.02333 13.1406 7.54833 12.0288L10.5167 13.5556C10.0667 14.1873 9.70833 14.9007 9.45833 15.6708H6.665H6.66667ZM10.935 13.0256L7.85333 11.4405C8.20667 10.8121 8.62833 10.2287 9.11333 9.70031L11.7067 12.2489C11.4333 12.4872 11.175 12.7472 10.9367 13.0256H10.935ZM12.2267 11.8322L9.57833 9.2286C10.6483 8.21352 11.9583 7.44845 13.4133 7.03009L12.895 11.4105C12.665 11.5388 12.4417 11.6788 12.2267 11.8338V11.8322ZM13.9067 8.49687L14.4383 10.7787C14.1517 10.8554 13.8733 10.9521 13.6017 11.0654L13.9067 8.49687ZM8.165 21.0729H11.8433C12.2733 21.0729 12.6233 21.423 12.6233 21.853V22.0013C12.6233 22.4314 12.2733 22.7814 11.8433 22.7814H11.1383C11.11 22.7814 11.08 22.7781 11.0517 22.7781L9.58833 22.7814C9.05 22.2714 8.57167 21.698 8.165 21.0729V21.0729ZM10.37 23.4448H11.095C11.5033 23.4665 11.83 23.8048 11.83 24.2199V24.3532C11.3133 24.0948 10.825 23.7915 10.3683 23.4448H10.37ZM12.2283 23.3881C12.8367 23.2181 13.285 22.6614 13.285 21.9997V21.8513C13.285 21.508 13.1633 21.1913 12.9617 20.9429C13.4617 20.7162 13.8117 20.2129 13.8117 19.6295V19.4811C13.8117 18.8461 13.3983 18.3044 12.825 18.1143C13.0017 17.8743 13.1083 17.5793 13.1083 17.2593V17.1109C13.1083 16.3159 12.4617 15.6691 11.6667 15.6691H10.1617C10.9233 13.539 12.6117 11.9338 14.6633 11.4005C15.4967 13.0123 16.6383 16.0658 15.635 17.4476C14.2117 19.4061 13.97 22.7214 15.0283 25.2899C14.13 25.1966 13.27 24.9749 12.465 24.6449C12.4817 24.5549 12.4917 24.4632 12.4917 24.3699V24.2215C12.4917 23.9115 12.3933 23.6265 12.2267 23.3914L12.2283 23.3881ZM15.7633 25.3316C15.76 25.3216 15.7567 25.3099 15.7533 25.2999C14.6467 22.8981 14.8267 19.6895 16.1733 17.8343C17.67 15.7741 15.5033 11.5521 15.1517 10.9004L14.2033 6.83507C14.785 6.72173 15.385 6.66006 16 6.66006C16.1317 6.66006 16.2633 6.66506 16.3933 6.67006L16.0667 10.7537L16.0583 10.8504V10.8537C16.0583 10.8587 16.0583 10.8654 16.0583 10.8704C16.0583 10.8904 16.0583 10.9121 16.0633 10.9321C16.0633 10.9387 16.0667 10.9471 16.0683 10.9537C16.0733 10.9721 16.0783 10.9921 16.0867 11.0088C16.0883 11.0138 16.0883 11.0171 16.0917 11.0221C16.335 11.5171 16.6833 12.2889 16.9667 13.1573C17.7017 15.4075 17.6483 17.1376 16.8067 18.296C15.5417 20.0395 15.4867 23.2298 16.64 25.3133C16.4283 25.3283 16.215 25.3383 16 25.3383C15.92 25.3383 15.8417 25.3349 15.7633 25.3316V25.3316ZM22.4167 22.7747H21.185C21.1617 22.7747 21.14 22.7764 21.1183 22.7781H20.3933C19.9633 22.7781 19.6133 22.428 19.6133 21.998V21.8497C19.6133 21.4196 19.9633 21.0696 20.3933 21.0696H23.835C23.43 21.693 22.9533 22.2647 22.4167 22.7731V22.7747Z" fill="#242320"/>
</svg>
